<?xml version="1.0" standalone="no"?>
<!DOCTYPE svg PUBLIC "-//W3C//DTD SVG 20010904//EN"
 "http://www.w3.org/TR/2001/REC-SVG-20010904/DTD/svg10.dtd">
<svg version="1.0" xmlns="http://www.w3.org/2000/svg"
 width="261.000000pt" height="261.000000pt" viewBox="0 0 261.000000 261.000000"
 preserveAspectRatio="xMidYMid meet">
<metadata>
Created by potrace 1.14, written by Peter Selinger 2001-2017
</metadata>
<g transform="translate(0.000000,261.000000) scale(0.100000,-0.100000)"
fill="#000000" stroke="none">
<path d="M1290 2458 c-11 -18 -20 -28 -20 -23 -1 20 -28 45 -43 39 -22 -8 -40
-58 -31 -86 10 -34 85 -150 92 -143 4 3 11 20 17 38 5 18 24 41 42 52 40 25
56 64 41 105 -19 57 -69 66 -98 18z"/>
<path d="M1326 2140 c36 -107 14 -205 -75 -333 -18 -27 -41 -72 -51 -100 -12
-34 -25 -53 -37 -55 -80 -14 -220 -78 -303 -139 -65 -49 -156 -151 -199 -227
-77 -135 -106 -248 -104 -412 3 -280 171 -543 428 -668 110 -54 209 -78 323
-79 137 -1 204 11 309 54 199 83 358 247 431 442 12 32 22 60 22 62 0 3 -44 5
-98 5 l-99 0 -29 -57 c-129 -255 -430 -379 -701 -288 -275 93 -441 374 -387
656 29 153 107 277 231 366 60 43 170 93 202 93 9 0 25 -20 36 -47 l20 -46 2
71 c2 113 40 216 114 308 55 68 78 130 75 198 -3 75 -30 137 -84 196 l-42 45
16 -45z"/>
<path d="M1514 2023 c9 -17 16 -58 17 -91 2 -66 -18 -119 -75 -202 -20 -29
-36 -56 -36 -60 0 -5 -10 -7 -23 -5 -17 4 -28 -4 -49 -38 -30 -47 -58 -113
-58 -133 0 -10 14 -14 46 -14 60 0 82 -13 90 -55 10 -57 21 -49 28 21 9 87 38
162 91 232 53 71 66 102 67 163 0 58 -28 122 -76 174 -37 39 -37 39 -22 8z"/>
<path d="M1554 1588 c-26 -39 -40 -67 -54 -102 -9 -24 -6 -26 78 -67 104 -50
207 -147 262 -247 l35 -63 98 -3 99 -3 -6 29 c-16 81 -128 251 -221 335 -71
65 -192 139 -240 148 -26 5 -33 1 -51 -27z"/>
</g>
</svg>
